<svg xmlns="http://www.w3.org/2000/svg" xmlns:xlink="http://www.w3.org/1999/xlink" width="500" zoomAndPan="magnify" viewBox="0 0 375 374.999991" height="500" preserveAspectRatio="xMidYMid meet" version="1.0"><path fill="#ffffff" d="M 188.480469 10.855469 C 188.480469 10.609375 188.480469 10.484375 188.480469 10.484375 C 188.480469 10.484375 188.480469 10.730469 188.234375 10.730469 C 188.234375 10.730469 188.234375 10.484375 187.992188 10.484375 C 187.992188 10.484375 187.992188 10.730469 187.992188 10.855469 C 180.636719 25.410156 1.226562 363.898438 7.476562 363.652344 C 15.929688 363.40625 24.632812 363.652344 33.089844 364.269531 C 36.398438 364.515625 37.621094 362.664062 38.96875 360.320312 C 47.792969 343.667969 174.753906 104.976562 188.234375 80.796875 C 201.46875 104.976562 327.453125 343.667969 336.027344 360.320312 C 337.378906 362.664062 338.601562 364.515625 341.910156 364.269531 C 350.367188 363.898438 358.824219 363.527344 367.28125 363.652344 C 373.773438 363.898438 195.957031 25.535156 188.480469 10.855469 Z M 188.480469 10.855469 " fill-opacity="1" fill-rule="nonzero"/><path fill="#ffffff" d="M 309.558594 364.515625 C 306.617188 358.222656 302.207031 350.453125 297.917969 342.683594 C 295.589844 338.488281 294.976562 337.5 286.519531 337.5 C 265.441406 337.5 226.347656 337.128906 188.601562 336.882812 L 188.113281 336.882812 C 150.613281 337.253906 112.011719 337.5 91.175781 337.5 C 82.722656 337.5 82.109375 338.488281 79.902344 342.683594 C 75.613281 350.453125 71.445312 357.976562 68.503906 364.515625 C 72.792969 364.515625 131.003906 364.515625 188.726562 364.144531 C 246.445312 364.515625 305.023438 364.515625 309.558594 364.515625 Z M 309.558594 364.515625 " fill-opacity="1" fill-rule="nonzero"/><path fill="#ffffff" d="M 187.890625 116.84375 C 187.890625 116.742188 187.890625 116.695312 187.890625 116.695312 C 187.890625 116.695312 187.890625 116.792969 187.792969 116.792969 C 187.792969 116.792969 187.792969 116.695312 187.695312 116.695312 C 187.695312 116.695312 187.695312 116.792969 187.695312 116.84375 C 184.753906 122.664062 112.988281 258.058594 115.488281 257.960938 C 118.871094 257.863281 122.351562 257.960938 125.734375 258.207031 C 127.058594 258.304688 127.550781 257.566406 128.089844 256.628906 C 131.617188 249.96875 182.402344 154.492188 187.792969 144.820312 C 193.089844 154.492188 243.480469 249.96875 246.910156 256.628906 C 247.449219 257.566406 247.941406 258.304688 249.265625 258.207031 C 252.648438 258.058594 256.03125 257.910156 259.410156 257.960938 C 262.007812 258.058594 190.882812 122.714844 187.890625 116.84375 Z M 187.890625 116.84375 " fill-opacity="1" fill-rule="nonzero"/><path fill="#ffffff" d="M 236.324219 258.304688 C 235.148438 255.789062 233.382812 252.679688 231.667969 249.574219 C 230.734375 247.894531 230.492188 247.5 227.109375 247.5 C 218.675781 247.5 203.039062 247.351562 187.941406 247.253906 L 187.746094 247.253906 C 172.746094 247.402344 157.304688 247.5 148.972656 247.5 C 145.589844 247.5 145.34375 247.894531 144.460938 249.574219 C 142.746094 252.679688 141.078125 255.691406 139.902344 258.304688 C 141.617188 258.304688 164.902344 258.304688 187.988281 258.15625 C 211.078125 258.304688 234.511719 258.304688 236.324219 258.304688 Z M 236.324219 258.304688 " fill-opacity="1" fill-rule="nonzero"/><path fill="#ffffff" d="M 199.890625 128.84375 C 199.890625 128.742188 199.890625 128.695312 199.890625 128.695312 C 199.890625 128.695312 199.890625 128.792969 199.792969 128.792969 C 199.792969 128.792969 199.792969 128.695312 199.695312 128.695312 C 199.695312 128.695312 199.695312 128.792969 199.695312 128.84375 C 196.753906 134.664062 124.988281 270.058594 127.488281 269.960938 C 130.871094 269.863281 134.351562 269.960938 137.734375 270.207031 C 139.058594 270.304688 139.550781 269.566406 140.089844 268.628906 C 143.617188 261.96875 194.402344 166.492188 199.792969 156.820312 C 205.089844 166.492188 255.480469 261.96875 258.910156 268.628906 C 259.449219 269.566406 259.941406 270.304688 261.265625 270.207031 C 264.648438 270.058594 268.03125 269.910156 271.410156 269.960938 C 274.007812 270.058594 202.882812 134.714844 199.890625 128.84375 Z M 199.890625 128.84375 " fill-opacity="1" fill-rule="nonzero"/><path fill="#ffffff" d="M 248.324219 270.304688 C 247.148438 267.789062 245.382812 264.679688 243.667969 261.574219 C 242.734375 259.894531 242.492188 259.5 239.109375 259.5 C 230.675781 259.5 215.039062 259.351562 199.941406 259.253906 L 199.746094 259.253906 C 184.746094 259.402344 169.304688 259.5 160.972656 259.5 C 157.589844 259.5 157.34375 259.894531 156.460938 261.574219 C 154.746094 264.679688 153.078125 267.691406 151.902344 270.304688 C 153.617188 270.304688 176.902344 270.304688 199.988281 270.15625 C 223.078125 270.304688 246.511719 270.304688 248.324219 270.304688 Z M 248.324219 270.304688 " fill-opacity="1" fill-rule="nonzero"/><path fill="#ffffff" d="M 211.890625 140.84375 C 211.890625 140.742188 211.890625 140.695312 211.890625 140.695312 C 211.890625 140.695312 211.890625 140.792969 211.792969 140.792969 C 211.792969 140.792969 211.792969 140.695312 211.695312 140.695312 C 211.695312 140.695312 211.695312 140.792969 211.695312 140.84375 C 208.753906 146.664062 136.988281 282.058594 139.488281 281.960938 C 142.871094 281.863281 146.351562 281.960938 149.734375 282.207031 C 151.058594 282.304688 151.550781 281.566406 152.089844 280.628906 C 155.617188 273.96875 206.402344 178.492188 211.792969 168.820312 C 217.089844 178.492188 267.480469 273.96875 270.910156 280.628906 C 271.449219 281.566406 271.941406 282.304688 273.265625 282.207031 C 276.648438 282.058594 280.03125 281.910156 283.410156 281.960938 C 286.007812 282.058594 214.882812 146.714844 211.890625 140.84375 Z M 211.890625 140.84375 " fill-opacity="1" fill-rule="nonzero"/><path fill="#ffffff" d="M 260.324219 282.304688 C 259.148438 279.789062 257.382812 276.679688 255.667969 273.574219 C 254.734375 271.894531 254.492188 271.5 251.109375 271.5 C 242.675781 271.5 227.039062 271.351562 211.941406 271.253906 L 211.746094 271.253906 C 196.746094 271.402344 181.304688 271.5 172.972656 271.5 C 169.589844 271.5 169.34375 271.894531 168.460938 273.574219 C 166.746094 276.679688 165.078125 279.691406 163.902344 282.304688 C 165.617188 282.304688 188.902344 282.304688 211.988281 282.15625 C 235.078125 282.304688 258.511719 282.304688 260.324219 282.304688 Z M 260.324219 282.304688 " fill-opacity="1" fill-rule="nonzero"/><path fill="#ffffff" d="M 223.890625 152.84375 C 223.890625 152.742188 223.890625 152.695312 223.890625 152.695312 C 223.890625 152.695312 223.890625 152.792969 223.792969 152.792969 C 223.792969 152.792969 223.792969 152.695312 223.695312 152.695312 C 223.695312 152.695312 223.695312 152.792969 223.695312 152.84375 C 220.753906 158.664062 148.988281 294.058594 151.488281 293.960938 C 154.871094 293.863281 158.351562 293.960938 161.734375 294.207031 C 163.058594 294.304688 163.550781 293.566406 164.089844 292.628906 C 167.617188 285.96875 218.402344 190.492188 223.792969 180.820312 C 229.089844 190.492188 279.480469 285.96875 282.910156 292.628906 C 283.449219 293.566406 283.941406 294.304688 285.265625 294.207031 C 288.648438 294.058594 292.03125 293.910156 295.410156 293.960938 C 298.007812 294.058594 226.882812 158.714844 223.890625 152.84375 Z M 223.890625 152.84375 " fill-opacity="1" fill-rule="nonzero"/><path fill="#ffffff" d="M 272.324219 294.304688 C 271.148438 291.789062 269.382812 288.679688 267.667969 285.574219 C 266.734375 283.894531 266.492188 283.5 263.109375 283.5 C 254.675781 283.5 239.039062 283.351562 223.941406 283.253906 L 223.746094 283.253906 C 208.746094 283.402344 193.304688 283.5 184.972656 283.5 C 181.589844 283.5 181.34375 283.894531 180.460938 285.574219 C 178.746094 288.679688 177.078125 291.691406 175.902344 294.304688 C 177.617188 294.304688 200.902344 294.304688 223.988281 294.15625 C 247.078125 294.304688 270.511719 294.304688 272.324219 294.304688 Z M 272.324219 294.304688 " fill-opacity="1" fill-rule="nonzero"/><path fill="#ffffff" d="M 235.890625 164.84375 C 235.890625 164.742188 235.890625 164.695312 235.890625 164.695312 C 235.890625 164.695312 235.890625 164.792969 235.792969 164.792969 C 235.792969 164.792969 235.792969 164.695312 235.695312 164.695312 C 235.695312 164.695312 235.695312 164.792969 235.695312 164.84375 C 232.753906 170.664062 160.988281 306.058594 163.488281 305.960938 C 166.871094 305.863281 170.351562 305.960938 173.734375 306.207031 C 175.058594 306.304688 175.550781 305.566406 176.089844 304.628906 C 179.617188 297.96875 230.402344 202.488281 235.792969 192.820312 C 241.089844 202.488281 291.480469 297.96875 294.910156 304.628906 C 295.449219 305.566406 295.941406 306.304688 297.265625 306.207031 C 300.648438 306.058594 304.03125 305.910156 307.410156 305.960938 C 310.007812 306.058594 238.882812 170.714844 235.890625 164.84375 Z M 235.890625 164.84375 " fill-opacity="1" fill-rule="nonzero"/><path fill="#ffffff" d="M 284.324219 306.304688 C 283.148438 303.789062 281.382812 300.679688 279.667969 297.574219 C 278.734375 295.894531 278.492188 295.5 275.109375 295.5 C 266.675781 295.5 251.039062 295.351562 235.941406 295.253906 L 235.746094 295.253906 C 220.746094 295.402344 205.304688 295.5 196.972656 295.5 C 193.589844 295.5 193.34375 295.894531 192.460938 297.574219 C 190.746094 300.679688 189.078125 303.691406 187.902344 306.304688 C 189.617188 306.304688 212.902344 306.304688 235.988281 306.15625 C 259.078125 306.304688 282.511719 306.304688 284.324219 306.304688 Z M 284.324219 306.304688 " fill-opacity="1" fill-rule="nonzero"/><path fill="#000000" d="M 198.832031 92.664062 C 198.832031 92.542969 198.832031 92.480469 198.832031 92.480469 C 198.832031 92.480469 198.832031 92.605469 198.707031 92.605469 C 198.707031 92.605469 198.707031 92.480469 198.585938 92.480469 C 198.585938 92.480469 198.585938 92.605469 198.585938 92.664062 C 194.914062 99.933594 105.328125 268.957031 108.445312 268.832031 C 112.667969 268.710938 117.015625 268.832031 121.238281 269.140625 C 122.890625 269.261719 123.5 268.339844 124.175781 267.167969 C 128.578125 258.855469 191.976562 139.664062 198.707031 127.589844 C 205.316406 139.664062 268.226562 258.855469 272.507812 267.167969 C 273.179688 268.339844 273.792969 269.261719 275.445312 269.140625 C 279.667969 268.957031 283.890625 268.769531 288.113281 268.832031 C 291.355469 268.957031 202.5625 99.996094 198.832031 92.664062 Z M 198.832031 92.664062 " fill-opacity="1" fill-rule="nonzero"/><path fill="#000000" d="M 259.289062 269.261719 C 257.824219 266.121094 255.617188 262.242188 253.476562 258.359375 C 252.316406 256.265625 252.007812 255.773438 247.785156 255.773438 C 237.261719 255.773438 217.738281 255.589844 198.890625 255.464844 L 198.648438 255.464844 C 179.921875 255.648438 160.644531 255.773438 150.242188 255.773438 C 146.019531 255.773438 145.714844 256.265625 144.613281 258.359375 C 142.472656 262.242188 140.390625 266 138.921875 269.261719 C 141.0625 269.261719 170.132812 269.261719 198.953125 269.078125 C 227.777344 269.261719 257.027344 269.261719 259.289062 269.261719 Z M 259.289062 269.261719 " fill-opacity="1" fill-rule="nonzero"/></svg>