<svg xmlns="http://www.w3.org/2000/svg" xmlns:xlink="http://www.w3.org/1999/xlink" width="500" zoomAndPan="magnify" viewBox="0 0 375 374.999991" height="500" preserveAspectRatio="xMidYMid meet" version="1.0"><path fill="#ffffff" d="M 187.890625 116.84375 C 187.890625 116.742188 187.890625 116.695312 187.890625 116.695312 C 187.890625 116.695312 187.890625 116.792969 187.792969 116.792969 C 187.792969 116.792969 187.792969 116.695312 187.695312 116.695312 C 187.695312 116.695312 187.695312 116.792969 187.695312 116.84375 C 184.753906 122.664062 112.988281 258.058594 115.488281 257.960938 C 118.871094 257.863281 122.351562 257.960938 125.734375 258.207031 C 127.058594 258.304688 127.550781 257.566406 128.089844 256.628906 C 131.617188 249.96875 182.402344 154.492188 187.792969 144.820312 C 193.089844 154.492188 243.480469 249.96875 246.910156 256.628906 C 247.449219 257.566406 247.941406 258.304688 249.265625 258.207031 C 252.648438 258.058594 256.03125 257.910156 259.410156 257.960938 C 262.007812 258.058594 190.882812 122.714844 187.890625 116.84375 Z M 187.890625 116.84375 " fill-opacity="1" fill-rule="nonzero"/><path fill="#ffffff" d="M 236.324219 258.304688 C 235.148438 255.789062 233.382812 252.679688 231.667969 249.574219 C 230.734375 247.894531 230.492188 247.5 227.109375 247.5 C 218.675781 247.5 203.039062 247.351562 187.941406 247.253906 L 187.746094 247.253906 C 172.746094 247.402344 157.304688 247.5 148.972656 247.5 C 145.589844 247.5 145.34375 247.894531 144.460938 249.574219 C 142.746094 252.679688 141.078125 255.691406 139.902344 258.304688 C 141.617188 258.304688 164.902344 258.304688 187.988281 258.15625 C 211.078125 258.304688 234.511719 258.304688 236.324219 258.304688 Z M 236.324219 258.304688 " fill-opacity="1" fill-rule="nonzero"/><path fill="#ffffff" d="M 199.890625 128.84375 C 199.890625 128.742188 199.890625 128.695312 199.890625 128.695312 C 199.890625 128.695312 199.890625 128.792969 199.792969 128.792969 C 199.792969 128.792969 199.792969 128.695312 199.695312 128.695312 C 199.695312 128.695312 199.695312 128.792969 199.695312 128.84375 C 196.753906 134.664062 124.988281 270.058594 127.488281 269.960938 C 130.871094 269.863281 134.351562 269.960938 137.734375 270.207031 C 139.058594 270.304688 139.550781 269.566406 140.089844 268.628906 C 143.617188 261.96875 194.402344 166.492188 199.792969 156.820312 C 205.089844 166.492188 255.480469 261.96875 258.910156 268.628906 C 259.449219 269.566406 259.941406 270.304688 261.265625 270.207031 C 264.648438 270.058594 268.03125 269.910156 271.410156 269.960938 C 274.007812 270.058594 202.882812 134.714844 199.890625 128.84375 Z M 199.890625 128.84375 " fill-opacity="1" fill-rule="nonzero"/><path fill="#ffffff" d="M 248.324219 270.304688 C 247.148438 267.789062 245.382812 264.679688 243.667969 261.574219 C 242.734375 259.894531 242.492188 259.5 239.109375 259.5 C 230.675781 259.5 215.039062 259.351562 199.941406 259.253906 L 199.746094 259.253906 C 184.746094 259.402344 169.304688 259.5 160.972656 259.5 C 157.589844 259.5 157.34375 259.894531 156.460938 261.574219 C 154.746094 264.679688 153.078125 267.691406 151.902344 270.304688 C 153.617188 270.304688 176.902344 270.304688 199.988281 270.15625 C 223.078125 270.304688 246.511719 270.304688 248.324219 270.304688 Z M 248.324219 270.304688 " fill-opacity="1" fill-rule="nonzero"/><path fill="#ffffff" d="M 211.890625 140.84375 C 211.890625 140.742188 211.890625 140.695312 211.890625 140.695312 C 211.890625 140.695312 211.890625 140.792969 211.792969 140.792969 C 211.792969 140.792969 211.792969 140.695312 211.695312 140.695312 C 211.695312 140.695312 211.695312 140.792969 211.695312 140.84375 C 208.753906 146.664062 136.988281 282.058594 139.488281 281.960938 C 142.871094 281.863281 146.351562 281.960938 149.734375 282.207031 C 151.058594 282.304688 151.550781 281.566406 152.089844 280.628906 C 155.617188 273.96875 206.402344 178.492188 211.792969 168.820312 C 217.089844 178.492188 267.480469 273.96875 270.910156 280.628906 C 271.449219 281.566406 271.941406 282.304688 273.265625 282.207031 C 276.648438 282.058594 280.03125 281.910156 283.410156 281.960938 C 286.007812 282.058594 214.882812 146.714844 211.890625 140.84375 Z M 211.890625 140.84375 " fill-opacity="1" fill-rule="nonzero"/><path fill="#ffffff" d="M 260.324219 282.304688 C 259.148438 279.789062 257.382812 276.679688 255.667969 273.574219 C 254.734375 271.894531 254.492188 271.5 251.109375 271.5 C 242.675781 271.5 227.039062 271.351562 211.941406 271.253906 L 211.746094 271.253906 C 196.746094 271.402344 181.304688 271.5 172.972656 271.5 C 169.589844 271.5 169.34375 271.894531 168.460938 273.574219 C 166.746094 276.679688 165.078125 279.691406 163.902344 282.304688 C 165.617188 282.304688 188.902344 282.304688 211.988281 282.15625 C 235.078125 282.304688 258.511719 282.304688 260.324219 282.304688 Z M 260.324219 282.304688 " fill-opacity="1" fill-rule="nonzero"/><path fill="#ffffff" d="M 223.890625 152.84375 C 223.890625 152.742188 223.890625 152.695312 223.890625 152.695312 C 223.890625 152.695312 223.890625 152.792969 223.792969 152.792969 C 223.792969 152.792969 223.792969 152.695312 223.695312 152.695312 C 223.695312 152.695312 223.695312 152.792969 223.695312 152.84375 C 220.753906 158.664062 148.988281 294.058594 151.488281 293.960938 C 154.871094 293.863281 158.351562 293.960938 161.734375 294.207031 C 163.058594 294.304688 163.550781 293.566406 164.089844 292.628906 C 167.617188 285.96875 218.402344 190.492188 223.792969 180.820312 C 229.089844 190.492188 279.480469 285.96875 282.910156 292.628906 C 283.449219 293.566406 283.941406 294.304688 285.265625 294.207031 C 288.648438 294.058594 292.03125 293.910156 295.410156 293.960938 C 298.007812 294.058594 226.882812 158.714844 223.890625 152.84375 Z M 223.890625 152.84375 " fill-opacity="1" fill-rule="nonzero"/><path fill="#ffffff" d="M 272.324219 294.304688 C 271.148438 291.789062 269.382812 288.679688 267.667969 285.574219 C 266.734375 283.894531 266.492188 283.5 263.109375 283.5 C 254.675781 283.5 239.039062 283.351562 223.941406 283.253906 L 223.746094 283.253906 C 208.746094 283.402344 193.304688 283.5 184.972656 283.5 C 181.589844 283.5 181.34375 283.894531 180.460938 285.574219 C 178.746094 288.679688 177.078125 291.691406 175.902344 294.304688 C 177.617188 294.304688 200.902344 294.304688 223.988281 294.15625 C 247.078125 294.304688 270.511719 294.304688 272.324219 294.304688 Z M 272.324219 294.304688 " fill-opacity="1" fill-rule="nonzero"/><path fill="#ffffff" d="M 235.890625 164.84375 C 235.890625 164.742188 235.890625 164.695312 235.890625 164.695312 C 235.890625 164.695312 235.890625 164.792969 235.792969 164.792969 C 235.792969 164.792969 235.792969 164.695312 235.695312 164.695312 C 235.695312 164.695312 235.695312 164.792969 235.695312 164.84375 C 232.753906 170.664062 160.988281 306.058594 163.488281 305.960938 C 166.871094 305.863281 170.351562 305.960938 173.734375 306.207031 C 175.058594 306.304688 175.550781 305.566406 176.089844 304.628906 C 179.617188 297.96875 230.402344 202.488281 235.792969 192.820312 C 241.089844 202.488281 291.480469 297.96875 294.910156 304.628906 C 295.449219 305.566406 295.941406 306.304688 297.265625 306.207031 C 300.648438 306.058594 304.03125 305.910156 307.410156 305.960938 C 310.007812 306.058594 238.882812 170.714844 235.890625 164.84375 Z M 235.890625 164.84375 " fill-opacity="1" fill-rule="nonzero"/><path fill="#ffffff" d="M 284.324219 306.304688 C 283.148438 303.789062 281.382812 300.679688 279.667969 297.574219 C 278.734375 295.894531 278.492188 295.5 275.109375 295.5 C 266.675781 295.5 251.039062 295.351562 235.941406 295.253906 L 235.746094 295.253906 C 220.746094 295.402344 205.304688 295.5 196.972656 295.5 C 193.589844 295.5 193.34375 295.894531 192.460938 297.574219 C 190.746094 300.679688 189.078125 303.691406 187.902344 306.304688 C 189.617188 306.304688 212.902344 306.304688 235.988281 306.15625 C 259.078125 306.304688 282.511719 306.304688 284.324219 306.304688 Z M 284.324219 306.304688 " fill-opacity="1" fill-rule="nonzero"/><path fill="#ffffff" d="M 247.890625 176.84375 C 247.890625 176.742188 247.890625 176.695312 247.890625 176.695312 C 247.890625 176.695312 247.890625 176.792969 247.792969 176.792969 C 247.792969 176.792969 247.792969 176.695312 247.695312 176.695312 C 247.695312 176.695312 247.695312 176.792969 247.695312 176.84375 C 244.753906 182.664062 172.988281 318.058594 175.488281 317.960938 C 178.871094 317.863281 182.351562 317.960938 185.734375 318.207031 C 187.058594 318.304688 187.550781 317.566406 188.089844 316.628906 C 191.617188 309.96875 242.402344 214.488281 247.792969 204.820312 C 253.089844 214.488281 303.480469 309.96875 306.910156 316.628906 C 307.449219 317.566406 307.941406 318.304688 309.265625 318.207031 C 312.648438 318.058594 316.03125 317.910156 319.410156 317.960938 C 322.007812 318.058594 250.882812 182.714844 247.890625 176.84375 Z M 247.890625 176.84375 " fill-opacity="1" fill-rule="nonzero"/><path fill="#ffffff" d="M 296.324219 318.304688 C 295.148438 315.789062 293.382812 312.679688 291.667969 309.574219 C 290.734375 307.894531 290.492188 307.5 287.109375 307.5 C 278.675781 307.5 263.039062 307.351562 247.941406 307.253906 L 247.746094 307.253906 C 232.746094 307.402344 217.304688 307.5 208.972656 307.5 C 205.589844 307.5 205.34375 307.894531 204.460938 309.574219 C 202.746094 312.679688 201.078125 315.691406 199.902344 318.304688 C 201.617188 318.304688 224.902344 318.304688 247.988281 318.15625 C 271.078125 318.304688 294.511719 318.304688 296.324219 318.304688 Z M 296.324219 318.304688 " fill-opacity="1" fill-rule="nonzero"/><path fill="#ffffff" d="M 187.972656 98.804688 C 187.972656 98.683594 187.972656 98.621094 187.972656 98.621094 C 187.972656 98.621094 187.972656 98.746094 187.851562 98.746094 C 187.851562 98.746094 187.851562 98.621094 187.730469 98.621094 C 187.730469 98.621094 187.730469 98.746094 187.730469 98.804688 C 184.039062 106.113281 93.972656 276.035156 97.109375 275.910156 C 101.355469 275.785156 105.722656 275.910156 109.96875 276.21875 C 111.628906 276.34375 112.242188 275.414062 112.921875 274.238281 C 117.351562 265.878906 181.085938 146.054688 187.851562 133.917969 C 194.496094 146.054688 257.738281 265.878906 262.042969 274.238281 C 262.71875 275.414062 263.335938 276.34375 264.996094 276.21875 C 269.242188 276.035156 273.488281 275.847656 277.730469 275.910156 C 280.992188 276.035156 191.726562 106.175781 187.972656 98.804688 Z M 187.972656 98.804688 " fill-opacity="1" fill-rule="nonzero"/><path fill="#ffffff" d="M 248.753906 276.34375 C 247.28125 273.183594 245.0625 269.285156 242.910156 265.382812 C 241.742188 263.277344 241.433594 262.78125 237.191406 262.78125 C 226.609375 262.78125 206.984375 262.597656 188.035156 262.472656 L 187.789062 262.472656 C 168.964844 262.65625 149.585938 262.78125 139.128906 262.78125 C 134.882812 262.78125 134.574219 263.277344 133.46875 265.382812 C 131.316406 269.285156 129.222656 273.0625 127.746094 276.34375 C 129.898438 276.34375 159.121094 276.34375 188.097656 276.15625 C 217.074219 276.34375 246.480469 276.34375 248.753906 276.34375 Z M 248.753906 276.34375 " fill-opacity="1" fill-rule="nonzero"/><path fill="#ffffff" d="M 259.890625 188.84375 C 259.890625 188.742188 259.890625 188.695312 259.890625 188.695312 C 259.890625 188.695312 259.890625 188.792969 259.792969 188.792969 C 259.792969 188.792969 259.792969 188.695312 259.695312 188.695312 C 259.695312 188.695312 259.695312 188.792969 259.695312 188.84375 C 256.753906 194.664062 184.988281 330.058594 187.488281 329.960938 C 190.871094 329.863281 194.351562 329.960938 197.734375 330.207031 C 199.058594 330.304688 199.550781 329.566406 200.089844 328.628906 C 203.617188 321.96875 254.402344 226.488281 259.792969 216.820312 C 265.089844 226.488281 315.480469 321.96875 318.910156 328.628906 C 319.449219 329.566406 319.941406 330.304688 321.265625 330.207031 C 324.648438 330.058594 328.03125 329.910156 331.410156 329.960938 C 334.007812 330.058594 262.882812 194.714844 259.890625 188.84375 Z M 259.890625 188.84375 " fill-opacity="1" fill-rule="nonzero"/><path fill="#ffffff" d="M 308.324219 330.304688 C 307.148438 327.789062 305.382812 324.679688 303.667969 321.574219 C 302.734375 319.894531 302.492188 319.5 299.109375 319.5 C 290.675781 319.5 275.039062 319.351562 259.941406 319.253906 L 259.746094 319.253906 C 244.746094 319.402344 229.304688 319.5 220.972656 319.5 C 217.589844 319.5 217.34375 319.894531 216.460938 321.574219 C 214.746094 324.679688 213.078125 327.691406 211.902344 330.304688 C 213.617188 330.304688 236.902344 330.304688 259.988281 330.15625 C 283.078125 330.304688 306.511719 330.304688 308.324219 330.304688 Z M 308.324219 330.304688 " fill-opacity="1" fill-rule="nonzero"/><path fill="#ffffff" d="M 187.988281 99.175781 C 187.988281 99.054688 187.988281 98.992188 187.988281 98.992188 C 187.988281 98.992188 187.988281 99.117188 187.867188 99.117188 C 187.867188 99.117188 187.867188 98.992188 187.746094 98.992188 C 187.746094 98.992188 187.746094 99.117188 187.746094 99.175781 C 184.070312 106.457031 94.363281 275.699219 97.488281 275.574219 C 101.714844 275.453125 106.066406 275.574219 110.292969 275.882812 C 111.949219 276.007812 112.5625 275.082031 113.234375 273.910156 C 117.648438 265.585938 181.128906 146.238281 187.867188 134.148438 C 194.484375 146.238281 257.476562 265.585938 261.765625 273.910156 C 262.4375 275.082031 263.050781 276.007812 264.707031 275.882812 C 268.933594 275.699219 273.160156 275.515625 277.390625 275.574219 C 280.636719 275.699219 191.726562 106.515625 187.988281 99.175781 Z M 187.988281 99.175781 " fill-opacity="1" fill-rule="nonzero"/><path fill="#ffffff" d="M 248.53125 276.007812 C 247.058594 272.863281 244.851562 268.976562 242.707031 265.089844 C 241.542969 262.992188 241.238281 262.5 237.011719 262.5 C 226.472656 262.5 206.925781 262.316406 188.050781 262.191406 L 187.808594 262.191406 C 169.058594 262.375 149.753906 262.5 139.339844 262.5 C 135.109375 262.5 134.804688 262.992188 133.703125 265.089844 C 131.558594 268.976562 129.472656 272.738281 128.003906 276.007812 C 130.148438 276.007812 159.253906 276.007812 188.113281 275.824219 C 216.972656 276.007812 246.261719 276.007812 248.53125 276.007812 Z M 248.53125 276.007812 " fill-opacity="1" fill-rule="nonzero"/></svg>